<mxfile host="Electron" agent="Mozilla/5.0 (Macintosh; Intel Mac OS X 10_15_7) AppleWebKit/537.36 (KHTML, like Gecko) draw.io/24.5.3 Chrome/124.0.6367.207 Electron/30.0.6 Safari/537.36" modified="2024-09-05T11:35:01.604Z" version="24.5.3" etag="Hn2W-dFsrEukG4p1LDJP" type="device">
  <diagram name="Page-1" id="mhukryYaJw_BDWN4izXB">
    <mxGraphModel dx="1010" dy="686" grid="1" gridSize="10" guides="1" tooltips="1" connect="1" arrows="1" fold="1" page="1" pageScale="1" pageWidth="850" pageHeight="1100" math="0" shadow="0">
      <root>
        <mxCell id="0" />
        <mxCell id="1" parent="0" />
        <mxCell id="PHBNmCb0mfPoW6w0tBPd-8" value="AICoffeeMaker" style="shape=umlFrame;whiteSpace=wrap;html=1;pointerEvents=0;width=110;height=30;" parent="1" vertex="1">
          <mxGeometry x="150" y="60" width="610" height="550" as="geometry" />
        </mxCell>
        <mxCell id="PHBNmCb0mfPoW6w0tBPd-9" value="&lt;div&gt;Brew Coffee&lt;/div&gt;" style="ellipse;whiteSpace=wrap;html=1;" parent="1" vertex="1">
          <mxGeometry x="310" y="90" width="140" height="70" as="geometry" />
        </mxCell>
        <mxCell id="PHBNmCb0mfPoW6w0tBPd-12" style="rounded=0;orthogonalLoop=1;jettySize=auto;html=1;startArrow=classic;startFill=1;endArrow=none;endFill=0;dashed=1;" parent="1" source="PHBNmCb0mfPoW6w0tBPd-10" target="PHBNmCb0mfPoW6w0tBPd-9" edge="1">
          <mxGeometry relative="1" as="geometry" />
        </mxCell>
        <mxCell id="PHBNmCb0mfPoW6w0tBPd-15" value="&amp;lt;&amp;lt;extends&amp;gt;&amp;gt;" style="edgeLabel;html=1;align=center;verticalAlign=middle;resizable=0;points=[];" parent="PHBNmCb0mfPoW6w0tBPd-12" vertex="1" connectable="0">
          <mxGeometry x="0.089" y="4" relative="1" as="geometry">
            <mxPoint as="offset" />
          </mxGeometry>
        </mxCell>
        <mxCell id="PHBNmCb0mfPoW6w0tBPd-10" value="Select CoffeeSize" style="ellipse;whiteSpace=wrap;html=1;" parent="1" vertex="1">
          <mxGeometry x="610" y="250" width="140" height="70" as="geometry" />
        </mxCell>
        <mxCell id="PHBNmCb0mfPoW6w0tBPd-13" style="rounded=0;orthogonalLoop=1;jettySize=auto;html=1;startArrow=classic;startFill=1;endArrow=none;endFill=0;dashed=1;" parent="1" source="PHBNmCb0mfPoW6w0tBPd-11" target="PHBNmCb0mfPoW6w0tBPd-9" edge="1">
          <mxGeometry relative="1" as="geometry" />
        </mxCell>
        <mxCell id="PHBNmCb0mfPoW6w0tBPd-14" value="&amp;lt;&amp;lt;extends&amp;gt;&amp;gt;" style="edgeLabel;html=1;align=center;verticalAlign=middle;resizable=0;points=[];" parent="PHBNmCb0mfPoW6w0tBPd-13" vertex="1" connectable="0">
          <mxGeometry x="0.1463" y="4" relative="1" as="geometry">
            <mxPoint x="6" y="-1" as="offset" />
          </mxGeometry>
        </mxCell>
        <mxCell id="PHBNmCb0mfPoW6w0tBPd-11" value="Select Cup Amount" style="ellipse;whiteSpace=wrap;html=1;" parent="1" vertex="1">
          <mxGeometry x="590" y="90" width="140" height="70" as="geometry" />
        </mxCell>
        <mxCell id="mNXJ4jDjPYsWMqyPCVBW-2" style="rounded=0;orthogonalLoop=1;jettySize=auto;html=1;" edge="1" parent="1" source="PHBNmCb0mfPoW6w0tBPd-16" target="mNXJ4jDjPYsWMqyPCVBW-1">
          <mxGeometry relative="1" as="geometry" />
        </mxCell>
        <mxCell id="PHBNmCb0mfPoW6w0tBPd-16" value="Engineering Student" style="shape=umlActor;html=1;verticalLabelPosition=bottom;verticalAlign=top;align=center;" parent="1" vertex="1">
          <mxGeometry x="40" y="270" width="30" height="60" as="geometry" />
        </mxCell>
        <mxCell id="PHBNmCb0mfPoW6w0tBPd-17" style="rounded=0;orthogonalLoop=1;jettySize=auto;html=1;startArrow=classic;startFill=1;endArrow=none;endFill=0;" parent="1" source="PHBNmCb0mfPoW6w0tBPd-9" target="PHBNmCb0mfPoW6w0tBPd-16" edge="1">
          <mxGeometry relative="1" as="geometry" />
        </mxCell>
        <mxCell id="PHBNmCb0mfPoW6w0tBPd-19" style="rounded=0;orthogonalLoop=1;jettySize=auto;html=1;startArrow=classic;startFill=1;endArrow=none;endFill=0;" parent="1" source="PHBNmCb0mfPoW6w0tBPd-18" target="PHBNmCb0mfPoW6w0tBPd-16" edge="1">
          <mxGeometry relative="1" as="geometry" />
        </mxCell>
        <mxCell id="PHBNmCb0mfPoW6w0tBPd-18" value="Read Energy Data" style="ellipse;whiteSpace=wrap;html=1;" parent="1" vertex="1">
          <mxGeometry x="520" y="380" width="140" height="70" as="geometry" />
        </mxCell>
        <mxCell id="PHBNmCb0mfPoW6w0tBPd-21" style="rounded=0;orthogonalLoop=1;jettySize=auto;html=1;startArrow=classic;startFill=1;endArrow=none;endFill=0;" parent="1" source="PHBNmCb0mfPoW6w0tBPd-20" target="PHBNmCb0mfPoW6w0tBPd-16" edge="1">
          <mxGeometry relative="1" as="geometry" />
        </mxCell>
        <mxCell id="PHBNmCb0mfPoW6w0tBPd-22" style="rounded=0;orthogonalLoop=1;jettySize=auto;html=1;" parent="1" source="PHBNmCb0mfPoW6w0tBPd-20" target="PHBNmCb0mfPoW6w0tBPd-24" edge="1">
          <mxGeometry relative="1" as="geometry" />
        </mxCell>
        <mxCell id="PHBNmCb0mfPoW6w0tBPd-20" value="Distinguish Coffee&lt;br&gt;from AI" style="ellipse;whiteSpace=wrap;html=1;" parent="1" vertex="1">
          <mxGeometry x="210" y="370" width="140" height="70" as="geometry" />
        </mxCell>
        <mxCell id="PHBNmCb0mfPoW6w0tBPd-25" style="rounded=0;orthogonalLoop=1;jettySize=auto;html=1;" parent="1" source="PHBNmCb0mfPoW6w0tBPd-24" target="PHBNmCb0mfPoW6w0tBPd-18" edge="1">
          <mxGeometry relative="1" as="geometry" />
        </mxCell>
        <mxCell id="PHBNmCb0mfPoW6w0tBPd-24" value="&lt;div&gt;AI-Model&lt;/div&gt;&lt;div&gt;&lt;br&gt;&lt;/div&gt;" style="shape=umlActor;html=1;verticalLabelPosition=bottom;verticalAlign=top;align=center;" parent="1" vertex="1">
          <mxGeometry x="40" y="490" width="30" height="60" as="geometry" />
        </mxCell>
        <mxCell id="mNXJ4jDjPYsWMqyPCVBW-1" value="Determine OEE" style="ellipse;whiteSpace=wrap;html=1;" vertex="1" parent="1">
          <mxGeometry x="250" y="230" width="140" height="70" as="geometry" />
        </mxCell>
      </root>
    </mxGraphModel>
  </diagram>
</mxfile>
